<mxfile host="app.diagrams.net" agent="Mozilla/5.0 (Windows NT 10.0; Win64; x64) AppleWebKit/537.36 (KHTML, like Gecko) Chrome/132.0.0.0 Safari/537.36" version="26.0.10">
  <diagram name="Pagina-1" id="wW4Z6TZP-jDDgokMyb6F">
    <mxGraphModel dx="2790" dy="1230" grid="1" gridSize="10" guides="1" tooltips="1" connect="1" arrows="1" fold="1" page="1" pageScale="1" pageWidth="827" pageHeight="1169" math="0" shadow="0">
      <root>
        <mxCell id="0" />
        <mxCell id="1" parent="0" />
        <mxCell id="s1sX8F3FxZcr6Kcj3iWt-61" value="" style="rounded=0;whiteSpace=wrap;html=1;" vertex="1" parent="1">
          <mxGeometry x="520" y="28.5" width="410" height="950" as="geometry" />
        </mxCell>
        <mxCell id="s1sX8F3FxZcr6Kcj3iWt-11" value="ECR" style="rounded=0;whiteSpace=wrap;html=1;align=left;" vertex="1" parent="1">
          <mxGeometry x="600" y="120" width="300" height="170" as="geometry" />
        </mxCell>
        <mxCell id="s1sX8F3FxZcr6Kcj3iWt-10" value="" style="rounded=0;whiteSpace=wrap;html=1;align=left;" vertex="1" parent="1">
          <mxGeometry x="680" y="160" width="200" height="100" as="geometry" />
        </mxCell>
        <mxCell id="s1sX8F3FxZcr6Kcj3iWt-5" value="Python code&lt;div&gt;ELIA 1&#39; price&lt;br&gt;XML&lt;/div&gt;" style="rounded=0;whiteSpace=wrap;html=1;" vertex="1" parent="1">
          <mxGeometry x="750" y="180" width="120" height="60" as="geometry" />
        </mxCell>
        <mxCell id="s1sX8F3FxZcr6Kcj3iWt-12" value="ECR" style="rounded=0;whiteSpace=wrap;html=1;align=left;" vertex="1" parent="1">
          <mxGeometry x="600" y="450" width="300" height="170" as="geometry" />
        </mxCell>
        <mxCell id="s1sX8F3FxZcr6Kcj3iWt-13" value="" style="rounded=0;whiteSpace=wrap;html=1;align=left;" vertex="1" parent="1">
          <mxGeometry x="680" y="490" width="200" height="100" as="geometry" />
        </mxCell>
        <mxCell id="s1sX8F3FxZcr6Kcj3iWt-14" value="Python code&lt;div&gt;Processlayer&lt;/div&gt;" style="rounded=0;whiteSpace=wrap;html=1;" vertex="1" parent="1">
          <mxGeometry x="750" y="510" width="120" height="60" as="geometry" />
        </mxCell>
        <mxCell id="s1sX8F3FxZcr6Kcj3iWt-15" value="" style="endArrow=classic;html=1;rounded=0;exitX=1;exitY=0.5;exitDx=0;exitDy=0;" edge="1" parent="1" source="s1sX8F3FxZcr6Kcj3iWt-5">
          <mxGeometry width="50" height="50" relative="1" as="geometry">
            <mxPoint x="800" y="410" as="sourcePoint" />
            <mxPoint x="1070" y="210" as="targetPoint" />
          </mxGeometry>
        </mxCell>
        <mxCell id="s1sX8F3FxZcr6Kcj3iWt-18" value="Publisher" style="edgeLabel;html=1;align=center;verticalAlign=middle;resizable=0;points=[];" vertex="1" connectable="0" parent="s1sX8F3FxZcr6Kcj3iWt-15">
          <mxGeometry x="-0.3294" y="-3" relative="1" as="geometry">
            <mxPoint x="33" y="-23" as="offset" />
          </mxGeometry>
        </mxCell>
        <mxCell id="s1sX8F3FxZcr6Kcj3iWt-19" value="" style="endArrow=classic;html=1;rounded=0;entryX=0.5;entryY=0;entryDx=0;entryDy=0;entryPerimeter=0;" edge="1" parent="1" target="s1sX8F3FxZcr6Kcj3iWt-48">
          <mxGeometry width="50" height="50" relative="1" as="geometry">
            <mxPoint x="1110" y="250" as="sourcePoint" />
            <mxPoint x="1100" y="340" as="targetPoint" />
            <Array as="points">
              <mxPoint x="1110" y="300" />
            </Array>
          </mxGeometry>
        </mxCell>
        <mxCell id="s1sX8F3FxZcr6Kcj3iWt-23" value="" style="endArrow=classic;startArrow=classic;html=1;rounded=0;entryX=0.5;entryY=0;entryDx=0;entryDy=0;exitX=0;exitY=0.429;exitDx=0;exitDy=0;exitPerimeter=0;" edge="1" parent="1" source="s1sX8F3FxZcr6Kcj3iWt-48" target="s1sX8F3FxZcr6Kcj3iWt-14">
          <mxGeometry width="50" height="50" relative="1" as="geometry">
            <mxPoint x="1060" y="370" as="sourcePoint" />
            <mxPoint x="1190" y="400" as="targetPoint" />
            <Array as="points">
              <mxPoint x="810" y="370" />
            </Array>
          </mxGeometry>
        </mxCell>
        <mxCell id="s1sX8F3FxZcr6Kcj3iWt-24" value="Subscriber&lt;div&gt;&lt;br&gt;&lt;/div&gt;" style="text;html=1;align=center;verticalAlign=middle;resizable=0;points=[];autosize=1;strokeColor=none;fillColor=none;" vertex="1" parent="1">
          <mxGeometry x="860" y="350" width="80" height="40" as="geometry" />
        </mxCell>
        <mxCell id="s1sX8F3FxZcr6Kcj3iWt-25" value="ECR" style="rounded=0;whiteSpace=wrap;html=1;align=left;" vertex="1" parent="1">
          <mxGeometry x="600" y="780" width="300" height="170" as="geometry" />
        </mxCell>
        <mxCell id="s1sX8F3FxZcr6Kcj3iWt-26" value="" style="rounded=0;whiteSpace=wrap;html=1;align=left;" vertex="1" parent="1">
          <mxGeometry x="680" y="820" width="200" height="100" as="geometry" />
        </mxCell>
        <mxCell id="s1sX8F3FxZcr6Kcj3iWt-27" value="Python code&lt;br&gt;Output SMA API" style="rounded=0;whiteSpace=wrap;html=1;" vertex="1" parent="1">
          <mxGeometry x="750" y="840" width="120" height="60" as="geometry" />
        </mxCell>
        <mxCell id="s1sX8F3FxZcr6Kcj3iWt-29" value="" style="endArrow=classic;startArrow=classic;html=1;rounded=0;exitX=1;exitY=0.5;exitDx=0;exitDy=0;" edge="1" parent="1" source="s1sX8F3FxZcr6Kcj3iWt-14">
          <mxGeometry width="50" height="50" relative="1" as="geometry">
            <mxPoint x="1010" y="460" as="sourcePoint" />
            <mxPoint x="1270" y="540" as="targetPoint" />
          </mxGeometry>
        </mxCell>
        <mxCell id="s1sX8F3FxZcr6Kcj3iWt-30" value="Alle Configfile in Json formaat" style="text;html=1;align=center;verticalAlign=middle;whiteSpace=wrap;rounded=0;" vertex="1" parent="1">
          <mxGeometry x="1360" y="488.5" width="90" height="30" as="geometry" />
        </mxCell>
        <mxCell id="s1sX8F3FxZcr6Kcj3iWt-31" value="INFLUXDB" style="shape=cylinder3;whiteSpace=wrap;html=1;boundedLbl=1;backgroundOutline=1;size=15;" vertex="1" parent="1">
          <mxGeometry x="300" y="630" width="80" height="95" as="geometry" />
        </mxCell>
        <mxCell id="s1sX8F3FxZcr6Kcj3iWt-32" value="" style="endArrow=classic;startArrow=classic;html=1;rounded=0;exitX=1;exitY=0.5;exitDx=0;exitDy=0;entryX=0;entryY=0.5;entryDx=0;entryDy=0;exitPerimeter=0;" edge="1" parent="1" source="s1sX8F3FxZcr6Kcj3iWt-31" target="s1sX8F3FxZcr6Kcj3iWt-14">
          <mxGeometry width="50" height="50" relative="1" as="geometry">
            <mxPoint x="380" y="543.91" as="sourcePoint" />
            <mxPoint x="580" y="543.91" as="targetPoint" />
            <Array as="points" />
          </mxGeometry>
        </mxCell>
        <mxCell id="s1sX8F3FxZcr6Kcj3iWt-33" value="" style="image;aspect=fixed;html=1;points=[];align=center;fontSize=12;image=img/lib/azure2/other/Grafana.svg;" vertex="1" parent="1">
          <mxGeometry x="100" y="658.6" width="68" height="52.800000000000004" as="geometry" />
        </mxCell>
        <mxCell id="s1sX8F3FxZcr6Kcj3iWt-34" value="Grafana" style="text;html=1;align=center;verticalAlign=middle;resizable=0;points=[];autosize=1;strokeColor=none;fillColor=none;" vertex="1" parent="1">
          <mxGeometry x="100" y="709" width="70" height="30" as="geometry" />
        </mxCell>
        <mxCell id="s1sX8F3FxZcr6Kcj3iWt-35" value="" style="endArrow=classic;startArrow=classic;html=1;rounded=0;exitX=0.949;exitY=0.517;exitDx=0;exitDy=0;exitPerimeter=0;entryX=0.02;entryY=0.591;entryDx=0;entryDy=0;entryPerimeter=0;" edge="1" parent="1" source="s1sX8F3FxZcr6Kcj3iWt-33" target="s1sX8F3FxZcr6Kcj3iWt-31">
          <mxGeometry width="50" height="50" relative="1" as="geometry">
            <mxPoint x="390" y="553.91" as="sourcePoint" />
            <mxPoint x="297" y="546" as="targetPoint" />
            <Array as="points">
              <mxPoint x="230" y="686" />
            </Array>
          </mxGeometry>
        </mxCell>
        <mxCell id="s1sX8F3FxZcr6Kcj3iWt-36" value="Publisher" style="edgeLabel;html=1;align=center;verticalAlign=middle;resizable=0;points=[];" vertex="1" connectable="0" parent="1">
          <mxGeometry x="959.4705882352946" y="685" as="geometry" />
        </mxCell>
        <mxCell id="s1sX8F3FxZcr6Kcj3iWt-40" value="" style="endArrow=classic;html=1;rounded=0;exitX=0.5;exitY=1;exitDx=0;exitDy=0;entryX=0;entryY=0.5;entryDx=0;entryDy=0;entryPerimeter=0;" edge="1" parent="1" source="s1sX8F3FxZcr6Kcj3iWt-14" target="s1sX8F3FxZcr6Kcj3iWt-50">
          <mxGeometry width="50" height="50" relative="1" as="geometry">
            <mxPoint x="725" y="699.4100000000001" as="sourcePoint" />
            <mxPoint x="1060" y="700" as="targetPoint" />
            <Array as="points">
              <mxPoint x="810" y="699" />
            </Array>
          </mxGeometry>
        </mxCell>
        <mxCell id="s1sX8F3FxZcr6Kcj3iWt-42" value="" style="endArrow=classic;startArrow=classic;html=1;rounded=0;entryX=1;entryY=0.5;entryDx=0;entryDy=0;exitX=0;exitY=0.5;exitDx=0;exitDy=0;exitPerimeter=0;" edge="1" parent="1" source="s1sX8F3FxZcr6Kcj3iWt-52" target="s1sX8F3FxZcr6Kcj3iWt-25">
          <mxGeometry width="50" height="50" relative="1" as="geometry">
            <mxPoint x="1060" y="865" as="sourcePoint" />
            <mxPoint x="785" y="1160" as="targetPoint" />
            <Array as="points" />
          </mxGeometry>
        </mxCell>
        <mxCell id="s1sX8F3FxZcr6Kcj3iWt-43" value="Subscriber" style="edgeLabel;html=1;align=center;verticalAlign=middle;resizable=0;points=[];" vertex="1" connectable="0" parent="s1sX8F3FxZcr6Kcj3iWt-42">
          <mxGeometry x="0.3387" y="-4" relative="1" as="geometry">
            <mxPoint x="14" y="-11" as="offset" />
          </mxGeometry>
        </mxCell>
        <mxCell id="s1sX8F3FxZcr6Kcj3iWt-44" value="" style="outlineConnect=0;dashed=0;verticalLabelPosition=bottom;verticalAlign=top;align=center;html=1;shape=mxgraph.aws3.s3;fillColor=#E05243;gradientColor=none;" vertex="1" parent="1">
          <mxGeometry x="1280" y="488.5" width="69.25" height="81.5" as="geometry" />
        </mxCell>
        <mxCell id="s1sX8F3FxZcr6Kcj3iWt-45" value="S3" style="text;html=1;align=center;verticalAlign=middle;whiteSpace=wrap;rounded=0;" vertex="1" parent="1">
          <mxGeometry x="1284.63" y="572.8" width="60" height="30" as="geometry" />
        </mxCell>
        <mxCell id="s1sX8F3FxZcr6Kcj3iWt-46" value="" style="sketch=0;points=[[0,0,0],[0.25,0,0],[0.5,0,0],[0.75,0,0],[1,0,0],[0,1,0],[0.25,1,0],[0.5,1,0],[0.75,1,0],[1,1,0],[0,0.25,0],[0,0.5,0],[0,0.75,0],[1,0.25,0],[1,0.5,0],[1,0.75,0]];outlineConnect=0;fontColor=#232F3E;fillColor=#E7157B;strokeColor=#ffffff;dashed=0;verticalLabelPosition=bottom;verticalAlign=top;align=center;html=1;fontSize=12;fontStyle=0;aspect=fixed;shape=mxgraph.aws4.resourceIcon;resIcon=mxgraph.aws4.sns;" vertex="1" parent="1">
          <mxGeometry x="1070.25" y="171" width="78" height="78" as="geometry" />
        </mxCell>
        <mxCell id="s1sX8F3FxZcr6Kcj3iWt-47" value="SNS" style="text;html=1;align=center;verticalAlign=middle;whiteSpace=wrap;rounded=0;" vertex="1" parent="1">
          <mxGeometry x="1070" y="150" width="60" height="30" as="geometry" />
        </mxCell>
        <mxCell id="s1sX8F3FxZcr6Kcj3iWt-48" value="SQS" style="outlineConnect=0;dashed=0;verticalLabelPosition=bottom;verticalAlign=top;align=center;html=1;shape=mxgraph.aws3.sqs;fillColor=#D9A741;gradientColor=none;" vertex="1" parent="1">
          <mxGeometry x="1079" y="340" width="60" height="70" as="geometry" />
        </mxCell>
        <mxCell id="s1sX8F3FxZcr6Kcj3iWt-49" value="" style="endArrow=classic;html=1;rounded=0;entryX=0.5;entryY=0;entryDx=0;entryDy=0;" edge="1" parent="1">
          <mxGeometry width="50" height="50" relative="1" as="geometry">
            <mxPoint x="1109" y="740" as="sourcePoint" />
            <mxPoint x="1109" y="830" as="targetPoint" />
          </mxGeometry>
        </mxCell>
        <mxCell id="s1sX8F3FxZcr6Kcj3iWt-50" value="" style="sketch=0;points=[[0,0,0],[0.25,0,0],[0.5,0,0],[0.75,0,0],[1,0,0],[0,1,0],[0.25,1,0],[0.5,1,0],[0.75,1,0],[1,1,0],[0,0.25,0],[0,0.5,0],[0,0.75,0],[1,0.25,0],[1,0.5,0],[1,0.75,0]];outlineConnect=0;fontColor=#232F3E;fillColor=#E7157B;strokeColor=#ffffff;dashed=0;verticalLabelPosition=bottom;verticalAlign=top;align=center;html=1;fontSize=12;fontStyle=0;aspect=fixed;shape=mxgraph.aws4.resourceIcon;resIcon=mxgraph.aws4.sns;" vertex="1" parent="1">
          <mxGeometry x="1070" y="661" width="78" height="78" as="geometry" />
        </mxCell>
        <mxCell id="s1sX8F3FxZcr6Kcj3iWt-51" value="SNS" style="text;html=1;align=center;verticalAlign=middle;whiteSpace=wrap;rounded=0;" vertex="1" parent="1">
          <mxGeometry x="1079" y="640" width="60" height="30" as="geometry" />
        </mxCell>
        <mxCell id="s1sX8F3FxZcr6Kcj3iWt-52" value="SQS" style="outlineConnect=0;dashed=0;verticalLabelPosition=bottom;verticalAlign=top;align=center;html=1;shape=mxgraph.aws3.sqs;fillColor=#D9A741;gradientColor=none;" vertex="1" parent="1">
          <mxGeometry x="1079" y="830" width="60" height="70" as="geometry" />
        </mxCell>
        <mxCell id="s1sX8F3FxZcr6Kcj3iWt-53" value="" style="image;sketch=0;aspect=fixed;html=1;points=[];align=center;fontSize=12;image=img/lib/mscae/Docker.svg;" vertex="1" parent="1">
          <mxGeometry x="690" y="171" width="50" height="41" as="geometry" />
        </mxCell>
        <mxCell id="s1sX8F3FxZcr6Kcj3iWt-54" value="" style="sketch=0;points=[[0,0,0],[0.25,0,0],[0.5,0,0],[0.75,0,0],[1,0,0],[0,1,0],[0.25,1,0],[0.5,1,0],[0.75,1,0],[1,1,0],[0,0.25,0],[0,0.5,0],[0,0.75,0],[1,0.25,0],[1,0.5,0],[1,0.75,0]];outlineConnect=0;fontColor=#232F3E;fillColor=#ED7100;strokeColor=#ffffff;dashed=0;verticalLabelPosition=bottom;verticalAlign=top;align=center;html=1;fontSize=12;fontStyle=0;aspect=fixed;shape=mxgraph.aws4.resourceIcon;resIcon=mxgraph.aws4.ecr;" vertex="1" parent="1">
          <mxGeometry x="610" y="130" width="60" height="60" as="geometry" />
        </mxCell>
        <mxCell id="s1sX8F3FxZcr6Kcj3iWt-55" value="" style="sketch=0;points=[[0,0,0],[0.25,0,0],[0.5,0,0],[0.75,0,0],[1,0,0],[0,1,0],[0.25,1,0],[0.5,1,0],[0.75,1,0],[1,1,0],[0,0.25,0],[0,0.5,0],[0,0.75,0],[1,0.25,0],[1,0.5,0],[1,0.75,0]];outlineConnect=0;fontColor=#232F3E;fillColor=#ED7100;strokeColor=#ffffff;dashed=0;verticalLabelPosition=bottom;verticalAlign=top;align=center;html=1;fontSize=12;fontStyle=0;aspect=fixed;shape=mxgraph.aws4.resourceIcon;resIcon=mxgraph.aws4.ecr;" vertex="1" parent="1">
          <mxGeometry x="610" y="460" width="60" height="60" as="geometry" />
        </mxCell>
        <mxCell id="s1sX8F3FxZcr6Kcj3iWt-58" value="" style="image;sketch=0;aspect=fixed;html=1;points=[];align=center;fontSize=12;image=img/lib/mscae/Docker.svg;" vertex="1" parent="1">
          <mxGeometry x="690" y="495" width="50" height="41" as="geometry" />
        </mxCell>
        <mxCell id="s1sX8F3FxZcr6Kcj3iWt-59" value="" style="sketch=0;points=[[0,0,0],[0.25,0,0],[0.5,0,0],[0.75,0,0],[1,0,0],[0,1,0],[0.25,1,0],[0.5,1,0],[0.75,1,0],[1,1,0],[0,0.25,0],[0,0.5,0],[0,0.75,0],[1,0.25,0],[1,0.5,0],[1,0.75,0]];outlineConnect=0;fontColor=#232F3E;fillColor=#ED7100;strokeColor=#ffffff;dashed=0;verticalLabelPosition=bottom;verticalAlign=top;align=center;html=1;fontSize=12;fontStyle=0;aspect=fixed;shape=mxgraph.aws4.resourceIcon;resIcon=mxgraph.aws4.ecr;" vertex="1" parent="1">
          <mxGeometry x="610" y="790" width="60" height="60" as="geometry" />
        </mxCell>
        <mxCell id="s1sX8F3FxZcr6Kcj3iWt-60" value="" style="image;sketch=0;aspect=fixed;html=1;points=[];align=center;fontSize=12;image=img/lib/mscae/Docker.svg;" vertex="1" parent="1">
          <mxGeometry x="690" y="830" width="50" height="41" as="geometry" />
        </mxCell>
        <mxCell id="s1sX8F3FxZcr6Kcj3iWt-62" value="" style="outlineConnect=0;dashed=0;verticalLabelPosition=bottom;verticalAlign=top;align=center;html=1;shape=mxgraph.aws3.ecs;fillColor=#F58534;gradientColor=none;" vertex="1" parent="1">
          <mxGeometry x="528" y="40" width="72" height="67.5" as="geometry" />
        </mxCell>
        <mxCell id="s1sX8F3FxZcr6Kcj3iWt-63" value="ECS" style="text;html=1;align=center;verticalAlign=middle;whiteSpace=wrap;rounded=0;" vertex="1" parent="1">
          <mxGeometry x="528" y="107.5" width="60" height="30" as="geometry" />
        </mxCell>
        <mxCell id="s1sX8F3FxZcr6Kcj3iWt-64" value="AWS Fargate" style="sketch=0;outlineConnect=0;fontColor=#232F3E;gradientColor=none;strokeColor=#ffffff;fillColor=#232F3E;dashed=0;verticalLabelPosition=middle;verticalAlign=bottom;align=center;html=1;whiteSpace=wrap;fontSize=10;fontStyle=1;spacing=3;shape=mxgraph.aws4.productIcon;prIcon=mxgraph.aws4.fargate;" vertex="1" parent="1">
          <mxGeometry x="190" y="160" width="80" height="100" as="geometry" />
        </mxCell>
        <mxCell id="s1sX8F3FxZcr6Kcj3iWt-65" value="" style="endArrow=classic;startArrow=classic;html=1;rounded=0;" edge="1" parent="1">
          <mxGeometry width="50" height="50" relative="1" as="geometry">
            <mxPoint x="280" y="200" as="sourcePoint" />
            <mxPoint x="600" y="200" as="targetPoint" />
          </mxGeometry>
        </mxCell>
        <mxCell id="s1sX8F3FxZcr6Kcj3iWt-66" value="AWS Fargate" style="sketch=0;outlineConnect=0;fontColor=#232F3E;gradientColor=none;strokeColor=#ffffff;fillColor=#232F3E;dashed=0;verticalLabelPosition=middle;verticalAlign=bottom;align=center;html=1;whiteSpace=wrap;fontSize=10;fontStyle=1;spacing=3;shape=mxgraph.aws4.productIcon;prIcon=mxgraph.aws4.fargate;" vertex="1" parent="1">
          <mxGeometry x="190" y="472.8" width="80" height="100" as="geometry" />
        </mxCell>
        <mxCell id="s1sX8F3FxZcr6Kcj3iWt-67" value="" style="endArrow=classic;startArrow=classic;html=1;rounded=0;entryX=-0.003;entryY=0.399;entryDx=0;entryDy=0;exitX=1;exitY=0.472;exitDx=0;exitDy=0;exitPerimeter=0;entryPerimeter=0;" edge="1" parent="1" source="s1sX8F3FxZcr6Kcj3iWt-66" target="s1sX8F3FxZcr6Kcj3iWt-12">
          <mxGeometry width="50" height="50" relative="1" as="geometry">
            <mxPoint x="268" y="400" as="sourcePoint" />
            <mxPoint x="588" y="400" as="targetPoint" />
          </mxGeometry>
        </mxCell>
        <mxCell id="s1sX8F3FxZcr6Kcj3iWt-68" value="AWS Fargate" style="sketch=0;outlineConnect=0;fontColor=#232F3E;gradientColor=none;strokeColor=#ffffff;fillColor=#232F3E;dashed=0;verticalLabelPosition=middle;verticalAlign=bottom;align=center;html=1;whiteSpace=wrap;fontSize=10;fontStyle=1;spacing=3;shape=mxgraph.aws4.productIcon;prIcon=mxgraph.aws4.fargate;" vertex="1" parent="1">
          <mxGeometry x="190" y="820" width="80" height="100" as="geometry" />
        </mxCell>
        <mxCell id="s1sX8F3FxZcr6Kcj3iWt-69" value="" style="endArrow=classic;startArrow=classic;html=1;rounded=0;" edge="1" parent="1" source="s1sX8F3FxZcr6Kcj3iWt-68">
          <mxGeometry width="50" height="50" relative="1" as="geometry">
            <mxPoint x="290" y="864.41" as="sourcePoint" />
            <mxPoint x="600" y="864" as="targetPoint" />
            <Array as="points" />
          </mxGeometry>
        </mxCell>
      </root>
    </mxGraphModel>
  </diagram>
</mxfile>
